<?xml version="1.0" encoding="iso-8859-1"?>
<!-- Uploaded to: SVG Repo, www.svgrepo.com, Generator: SVG Repo Mixer Tools -->
<svg version="1.1" id="Layer_1" xmlns="http://www.w3.org/2000/svg" xmlns:xlink="http://www.w3.org/1999/xlink" 
	 viewBox="0 0 512 512" xml:space="preserve">
<g>
	<rect x="52.883" y="158.764" style="fill:#F95428;" width="23.153" height="324.969"/>
	<rect x="436.246" y="158.764" style="fill:#F95428;" width="23.153" height="324.969"/>
</g>
<g>
	<rect x="52.883" y="158.764" style="fill:#E03F20;" width="23.153" height="44.495"/>
	<rect x="436.246" y="158.764" style="fill:#E03F20;" width="22.77" height="44.495"/>
</g>
<polygon style="fill:#F95428;" points="459.394,108.027 459.012,109.017 459.012,178.52 52.879,178.52 52.879,105.081 
	51.979,102.618 255.945,28.685 "/>
<polygon style="fill:#E03F20;" points="459.012,114.167 459.012,132.27 255.833,53.03 52.879,126.592 52.879,108.657 
	256.058,35.016 "/>
<g>
	<path style="fill:#2BA5F7;" d="M204.583,230.724h-25.981c-2.853,0-5.165,2.312-5.165,5.165v32.509h36.31v-32.509
		C209.748,233.037,207.436,230.724,204.583,230.724z"/>
	<path style="fill:#2BA5F7;" d="M268.932,230.724h-25.981c-2.853,0-5.165,2.312-5.165,5.165v32.509h36.31v-32.509
		C274.097,233.037,271.785,230.724,268.932,230.724z"/>
	<path style="fill:#2BA5F7;" d="M333.281,230.724h-25.981c-2.853,0-5.165,2.312-5.165,5.165v32.509h36.31v-32.509
		C338.446,233.037,336.134,230.724,333.281,230.724z"/>
</g>
<g>
	<rect x="146" y="437.675" style="fill:#666666;" width="53.727" height="46.227"/>
	<rect x="312.151" y="437.675" style="fill:#666666;" width="53.727" height="46.227"/>
</g>
<path style="fill:#E03F20;" d="M115.834,339.752h37.785v-52.815h-37.785c-4.051,0-7.336,3.285-7.336,7.336v38.143
	C108.498,336.467,111.783,339.752,115.834,339.752z"/>
<g>
	<path style="fill:#F95428;" d="M365.018,339.752h31.028c4.051,0,7.336-3.285,7.336-7.336v-38.143c0-4.051-3.285-7.336-7.336-7.336
		h-31.028V339.752z"/>
	<path style="fill:#F95428;" d="M374.779,279.26v155.063H137.101v-157.29c0-6.578,3.846-12.257,9.412-14.899
		c2.148-1.034,4.565-1.608,7.107-1.608h202.426C366.39,260.527,374.779,268.915,374.779,279.26z"/>
</g>
<path style="fill:#CCCCCC;" d="M374.779,276.873v57.373H137.101v-61.275c0-6.873,5.572-12.444,12.444-12.444h208.887
	C367.461,260.527,374.779,267.846,374.779,276.873z"/>
<g>
	<path style="fill:#F2F2F2;" d="M368.531,279.22l0.626,55.028h-60.968l28.708-72.033h25.439
		C369.207,262.213,368.531,272.347,368.531,279.22z"/>
	<polygon style="fill:#F2F2F2;" points="256.71,262.213 256.71,334.246 190.119,334.246 218.827,262.213 	"/>
	<rect x="201.481" y="357.355" style="fill:#F2F2F2;" width="108.927" height="61.617"/>
</g>
<path style="fill:#F95428;" d="M374.779,269.938v73.798h-13.494V274.02h-98.593v69.717h-13.494V274.02h-98.604v69.717h-13.494
	v-73.798c0-5.195,4.217-9.412,9.412-9.412h218.854C370.562,260.527,374.779,264.743,374.779,269.938z"/>
<g>
	<rect x="323.969" y="382.532" style="fill:#F7B239;" width="37.107" height="22.489"/>
	<rect x="150.802" y="382.532" style="fill:#F7B239;" width="37.107" height="22.489"/>
</g>
<g>
	<rect x="213.49" y="370.163" style="fill:#666666;" width="84.897" height="11.245"/>
	<rect x="213.49" y="391.527" style="fill:#666666;" width="84.897" height="11.245"/>
</g>
<path style="fill:#E03F20;" d="M146.513,260.527v168.669h-9.412V269.938C137.101,264.743,141.318,260.527,146.513,260.527z"/>
<path style="fill:#E6E6E6;" d="M379.568,416.264H132.313c-3.733,0-6.76,3.026-6.76,6.76v19.903c0,3.733,3.026,6.76,6.76,6.76
	h247.256c3.733,0,6.76-3.026,6.76-6.76v-19.903C386.328,419.292,383.302,416.264,379.568,416.264z"/>
<path style="fill:#CCCCCC;" d="M148.042,442.927v-19.903c0-3.733,3.026-6.76,6.76-6.76h-22.489c-3.733,0-6.76,3.026-6.76,6.76
	v19.903c0,3.733,3.026,6.76,6.76,6.76h22.489C151.069,449.687,148.042,446.66,148.042,442.927z"/>
<rect x="11.037" y="475.457" style="fill:#4D4D4D;" width="489.804" height="16.867"/>
<circle style="fill:#FFFFFF;" cx="255.939" cy="112.661" r="48.352"/>
<g>
	<polygon style="fill:#F95428;" points="505.871,135.209 255.838,37.695 5.746,128.343 0,112.484 256.055,19.676 512,119.495 	"/>
	<path style="fill:#F95428;" d="M250.574,75.977c0,34.105-24.137,28.334-23.611,51.421c0.296,13.035,11.267,20.497,23.581,21.947
		c-2.951-3.41-15.97-20.393,4.228-34.015c0.649,13.128,11.544,15.216,11.544,24.661c0,3.977-0.838,6.648-1.808,8.412
		c10.162-2.656,18.773-9.739,20.172-21.529C288.352,95.915,250.574,75.977,250.574,75.977z"/>
</g>
</svg>