<?xml version="1.0" ?><!-- Uploaded to: SVG Repo, www.svgrepo.com, Generator: SVG Repo Mixer Tools -->
<svg width="800px" height="800px" viewBox="0 0 512 512" id="Layer_1" version="1.1" xml:space="preserve" xmlns="http://www.w3.org/2000/svg" xmlns:xlink="http://www.w3.org/1999/xlink"><style type="text/css">
	.st0{fill:#2B79C2;}
	.st1{fill:#3B4652;}
	.st2{fill:#333333;}
</style><path class="st1" d="M465.8,102.5c5.9,0,10.7-4.8,10.7-10.7V67.2c0-5.9-4.8-10.7-10.7-10.7H46.2c-5.9,0-10.7,4.8-10.7,10.7v24.7  c0,5.9,4.8,10.7,10.7,10.7H74v307H46.2c-5.9,0-10.7,4.8-10.7,10.7v24.7c0,5.9,4.8,10.7,10.7,10.7h419.7c5.9,0,10.7-4.8,10.7-10.7  v-24.7c0-5.9-4.8-10.7-10.7-10.7H448v-307H465.8z M183,102.5V212h-62V102.5H183z M160,245.6v20.8c0,4.4-3.6,8-8,8s-8-3.6-8-8v-20.8  c0-4.4,3.6-8,8-8S160,241.2,160,245.6z M121,409.5V300h62v109.5H121z M230,409.5v-307h62v307H230z M401,409.5h-62v-307h62V409.5z"/></svg>