<?xml version="1.0" encoding="iso-8859-1"?>
<!-- Uploaded to: SVG Repo, www.svgrepo.com, Generator: SVG Repo Mixer Tools -->
<svg xmlns="http://www.w3.org/2000/svg" xmlns:xlink="http://www.w3.org/1999/xlink" version="1.1" id="Layer_1"  viewBox="0 0 502 502" xml:space="preserve" width="512" height="512">
<g>
	<path style="fill:#4D93E8;" d="M170.667,188.791c0-44.367,35.966-80.333,80.333-80.333s80.333,35.966,80.333,80.333H170.667z"/>
	<rect x="10" y="309.291" style="fill:#CCD7EB;" width="160.667" height="146.951"/>
	<rect x="331.333" y="309.291" style="fill:#CCD7EB;" width="160.667" height="146.951"/>
	<rect x="10" y="252.47" style="fill:#4D93E8;" width="160.667" height="56.821"/>
	<rect x="331.333" y="252.47" style="fill:#4D93E8;" width="160.667" height="56.821"/>
	<rect x="170.667" y="188.791" style="fill:#CCD7EB;" width="160.667" height="267.451"/>
	<path style="fill:#4D93E8;" d="M278.431,456.242h-54.862v-67.598c0-15.15,12.281-27.431,27.431-27.431h0   c15.15,0,27.431,12.281,27.431,27.431V456.242z"/>
	<rect x="46.248" y="345.539" style="fill:#4D93E8;" width="26.451" height="58.78"/>
	<rect x="108.947" y="345.539" style="fill:#4D93E8;" width="26.451" height="58.78"/>
	<rect x="366.602" y="345.539" style="fill:#4D93E8;" width="26.451" height="58.78"/>
	<rect x="429.301" y="345.539" style="fill:#4D93E8;" width="26.451" height="58.78"/>
	<g>
		<rect x="251" y="45.758" style="fill:#4D93E8;" width="53.882" height="35.268"/>
		<g>
			<path d="M241,99.014c-45.121,4.992-80.333,43.347-80.333,89.777v53.679H10c-5.522,0-10,4.477-10,10v203.772     c0,5.523,4.478,10,10,10h482c5.522,0,10-4.477,10-10V252.47c0-5.523-4.478-10-10-10H341.333v-53.679     c0-46.43-35.212-84.784-80.333-89.777v-7.988h43.882c5.522,0,10-4.477,10-10V45.758c0-5.523-4.478-10-10-10H251     c-5.522,0-10,4.477-10,10V99.014z M482,262.47v36.821H341.333V262.47H482z M294.882,71.026H261V55.758h33.882V71.026z      M251,118.458c35.388,0,64.755,26.271,69.624,60.333h-42.193h-54.861h-42.193C186.245,144.728,215.612,118.458,251,118.458z      M20,262.47h140.667v36.821H20V262.47z M20,319.291h140.667v126.951H20V319.291z M321.333,446.242h-32.902v-57.598     c0-20.639-16.791-37.431-37.431-37.431s-37.431,16.792-37.431,37.431v57.598h-32.902V198.791h32.902v114.419     c0,5.523,4.478,10,10,10s10-4.477,10-10V198.791h34.861v72.292c0,5.523,4.478,10,10,10s10-4.477,10-10v-72.292h32.902V446.242z      M233.569,446.242v-57.598c0-9.611,7.819-17.431,17.431-17.431s17.431,7.819,17.431,17.431v57.598H233.569z M482,446.242H341.333     V319.291H482V446.242z"/>
			<path d="M278.431,323.209c5.522,0,10-4.477,10-10v-10.776c0-5.523-4.478-10-10-10s-10,4.477-10,10v10.776     C268.431,318.732,272.908,323.209,278.431,323.209z"/>
			<path d="M72.699,335.539H46.248c-5.522,0-10,4.477-10,10v58.781c0,5.523,4.478,10,10,10h26.451c5.522,0,10-4.477,10-10v-58.781     C82.699,340.016,78.222,335.539,72.699,335.539z M62.699,394.319h-6.451v-38.781h6.451V394.319z"/>
			<path d="M135.398,335.539h-26.451c-5.522,0-10,4.477-10,10v58.781c0,5.523,4.478,10,10,10h26.451c5.522,0,10-4.477,10-10v-58.781     C145.398,340.016,140.921,335.539,135.398,335.539z M125.398,394.319h-6.451v-38.781h6.451V394.319z"/>
			<path d="M366.602,414.319h26.451c5.522,0,10-4.477,10-10v-58.781c0-5.523-4.478-10-10-10h-26.451c-5.522,0-10,4.477-10,10v58.781     C356.602,409.842,361.079,414.319,366.602,414.319z M376.602,355.539h6.451v38.781h-6.451V355.539z"/>
			<path d="M429.301,414.319h26.451c5.522,0,10-4.477,10-10v-58.781c0-5.523-4.478-10-10-10h-26.451c-5.522,0-10,4.477-10,10v58.781     C419.301,409.842,423.778,414.319,429.301,414.319z M439.301,355.539h6.451v38.781h-6.451V355.539z"/>
		</g>
	</g>
</g>















</svg>