<?xml version="1.0" encoding="iso-8859-1"?>
<!-- Uploaded to: SVG Repo, www.svgrepo.com, Generator: SVG Repo Mixer Tools -->
<svg version="1.1" id="Layer_1" xmlns="http://www.w3.org/2000/svg" xmlns:xlink="http://www.w3.org/1999/xlink" 
	 viewBox="0 0 512 512" xml:space="preserve">
<path style="fill:#A4A9AD;" d="M512,444.505c0,2.427-1.984,4.413-4.412,4.413H4.412c-2.427,0-4.412-1.986-4.412-4.413v-15.792
	c0-2.427,1.985-4.413,4.412-4.413h503.176c2.428,0,4.412,1.986,4.412,4.413V444.505z"/>
<path style="fill:#218649;" d="M507.588,424.3h-80.124v24.618h80.124c2.428,0,4.412-1.986,4.412-4.413v-15.792
	C512,426.286,510.015,424.3,507.588,424.3z"/>
<rect x="161.744" y="165.818" style="fill:#00B3E3;" width="296.507" height="258.482"/>
<rect x="410.92" y="296.059" style="opacity:0.1;enable-background:new    ;" width="47.331" height="22.777"/>
<rect x="212.112" y="218.349" style="opacity:0.1;enable-background:new    ;" width="47.331" height="22.778"/>
<rect x="175.213" y="341.424" style="opacity:0.1;enable-background:new    ;" width="47.331" height="22.778"/>
<rect x="290.281" y="310.118" style="opacity:0.1;enable-background:new    ;" width="47.331" height="22.778"/>
<rect x="347.083" y="179.451" style="opacity:0.1;enable-background:new    ;" width="47.331" height="22.778"/>
<rect x="368.897" y="387.303" style="opacity:0.1;enable-background:new    ;" width="47.331" height="22.778"/>
<polygon style="opacity:0.2;enable-background:new    ;" points="161.742,165.818 161.742,424.3 215.995,424.3 215.995,194.119 
	458.254,194.119 458.254,165.818 "/>
<path style="fill:#333E48;" d="M483.555,131.535c0-6.008-4.916-10.923-10.923-10.923H172.665c-6.008,0-10.923,4.916-10.923,10.923
	v36.988c0,6.008,4.916,10.923,10.923,10.923h299.965c6.008,0,10.923-4.916,10.923-10.923v-36.988H483.555z"/>
<path style="fill:#FFFFFF;" d="M425.819,260.455c0,9.012-7.373,16.385-16.385,16.385H247.701c-9.012,0-16.385-7.373-16.385-16.385
	v-21.172c0-9.012,7.373-16.385,16.385-16.385h161.733c9.012,0,16.385,7.373,16.385,16.385V260.455z"/>
<rect x="320.375" y="222.905" style="fill:#0071CE;" width="16.385" height="53.94"/>
<path style="opacity:0.2;enable-background:new    ;" d="M409.434,222.899H247.701c-9.012,0-16.385,7.373-16.385,16.385v18.236
	c0-9.012,7.373-16.385,16.385-16.385h161.733c9.012,0,16.385,7.373,16.385,16.385v-18.236
	C425.819,230.272,418.446,222.899,409.434,222.899z"/>
<path style="fill:#0071CE;" d="M409.434,285.033H247.701c-13.553,0-24.578-11.025-24.578-24.578v-21.172
	c0-13.553,11.025-24.578,24.578-24.578h161.733c13.553,0,24.578,11.025,24.578,24.578v21.172
	C434.012,274.008,422.987,285.033,409.434,285.033z M247.702,231.092c-4.518,0-8.193,3.675-8.193,8.193v21.172
	c0,4.518,3.675,8.193,8.193,8.193h161.733c4.518,0,8.193-3.675,8.193-8.193v-21.172c0-4.518-3.675-8.193-8.193-8.193H247.702z"/>
<rect x="264.578" y="332.893" style="fill:#FFFFFF;" width="127.99" height="91.408"/>
<path style="fill:#333E48;" d="M392.56,324.699H264.575c-4.525,0-8.193,3.668-8.193,8.193V424.3h16.385v-83.215h47.608V424.3h16.385
	v-83.215h47.607V424.3h16.385v-91.408C400.753,328.368,397.085,324.699,392.56,324.699z"/>
<path style="fill:#0071CE;" d="M198.882,424.3V74.005c0-6.008-4.916-10.923-10.923-10.923H44.157
	c-6.008,0-10.923,4.916-10.923,10.923V424.3H198.882z"/>
<rect x="33.234" y="334.914" style="opacity:0.1;enable-background:new    ;" width="47.331" height="22.778"/>
<rect x="151.552" y="265.452" style="opacity:0.1;enable-background:new    ;" width="47.331" height="22.778"/>
<rect x="33.234" y="102.921" style="opacity:0.1;enable-background:new    ;" width="47.331" height="22.778"/>
<rect x="62.712" y="232.299" style="opacity:0.1;enable-background:new    ;" width="47.331" height="22.777"/>
<rect x="151.552" y="85.199" style="opacity:0.1;enable-background:new    ;" width="47.331" height="22.777"/>
<rect x="120.235" y="375.921" style="opacity:0.1;enable-background:new    ;" width="47.331" height="22.778"/>
<path style="fill:#FFFFFF;" d="M166.454,296.559c0-9.012-7.373-16.385-16.385-16.385H82.048c-9.012,0-16.385,7.373-16.385,16.385
	v30.023c0,9.012,7.373,16.385,16.385,16.385h68.021c9.012,0,16.385-7.373,16.385-16.385V296.559z"/>
<path style="opacity:0.2;enable-background:new    ;" d="M150.069,280.174H82.048c-9.012,0-16.385,7.373-16.385,16.385v19.049
	c0-9.012,7.373-16.385,16.385-16.385h68.021c9.012,0,16.385,7.373,16.385,16.385v-19.049
	C166.454,287.548,159.081,280.174,150.069,280.174z"/>
<path style="fill:#00B3E3;" d="M150.069,351.16H82.047c-13.553,0-24.578-11.025-24.578-24.578v-30.023
	c0-13.553,11.025-24.578,24.578-24.578h68.022c13.553,0,24.578,11.025,24.578,24.578v30.023
	C174.647,340.135,163.622,351.16,150.069,351.16z M82.047,288.367c-4.518,0-8.193,3.675-8.193,8.193v30.023
	c0,4.518,3.675,8.193,8.193,8.193h68.022c4.518,0,8.193-3.675,8.193-8.193v-30.023c0-4.518-3.675-8.193-8.193-8.193L82.047,288.367
	L82.047,288.367z"/>
<rect x="445.219" y="352.818" style="fill:#D68231;" width="26.065" height="71.483"/>
<path style="opacity:0.2;enable-background:new    ;" d="M445.221,352.813v34.786c4.065,1.484,8.454,2.295,13.033,2.295
	s8.967-0.811,13.033-2.295v-34.786H445.221z"/>
<path style="fill:#218649;" d="M496.244,340.72c0-20.982-17.009-71.73-37.99-71.73c-20.982,0-37.991,50.748-37.991,71.73
	c0,20.982,17.009,37.99,37.991,37.99C479.235,378.709,496.244,361.701,496.244,340.72z"/>
<circle style="fill:#FFFFFF;" cx="116.062" cy="154.414" r="61.248"/>
<path style="fill:#FFB819;" d="M120.826,186.405c-2.622-0.933-6.913-0.933-9.535,0l-20.21,7.187
	c-2.622,0.933-4.706-0.581-4.629-3.363l0.59-21.442c0.076-2.782-1.25-6.863-2.946-9.07l-13.081-16.999
	c-1.696-2.207-0.901-4.654,1.769-5.441l20.573-6.065c2.67-0.786,6.141-3.31,7.715-5.605l12.126-17.693
	c1.574-2.296,4.149-2.296,5.722,0l12.126,17.693c1.573,2.296,5.046,4.818,7.715,5.605l20.573,6.065
	c2.67,0.786,3.466,3.236,1.769,5.441l-13.08,16.999c-1.698,2.207-3.024,6.288-2.947,9.07l0.59,21.442
	c0.076,2.782-2.007,4.295-4.628,3.363L120.826,186.405z"/>
</svg>